<?xml version="1.0" encoding="UTF-8"?>
<svg id="Background" xmlns="http://www.w3.org/2000/svg" viewBox="0 0 774.71 768.38">
  <path d="m347.35,166.44c-14.34-162.19-201.78-155.09-182.98,11.38,18.01,151.4,216.24,170.01,182.98-11.38Z" style="fill: #d9b78b; stroke-width: 0px;"/>
  <path d="m485.11,357.71s0,.08.01.08c-.46-.94-1.32-1.67-2.23-2.17,0,0,0,0,0,0-139.32-132.11-259.63,37.82-315.16,161.61-51.97,103.83-47.97,171.02-6.35,209.53.16.51.5.85,1.03.99-.18-.18-.36-.36-.53-.53,41.59,37.99,120.14,47.78,217.74,37.14,67.81-2.08,140.45,6.6,203.31-21.43,58.2-21,74.14-95.93,57.64-149.93-35.96-86.79-84.78-173.01-155.46-235.29Z" style="fill: #d9b78b; stroke-width: 0px;"/>
  <path d="m551.74,264.35h0c58.54-57.66,86.72-162.33,40.72-234.85-38.62-53.54-117.65-28.23-138.56,28.32-23.2,43.44-31.82,93.88-24.96,142.69,3.83,53.23,78.17,105.11,122.79,63.84Z" style="fill: #d9b78b; stroke-width: 0px;"/>
  <path d="m122.62,264.3C21.9,214.15-34.97,358.04,23.65,427.81c2.32,3.69,4.87,7.38,7.68,10.72.1.49.39.8.83.99,1.04,1.19,2.12,2.32,3.24,3.39,4.49,6.63,19.05,16.71,21.7,17.28,24.46,16.47,55.54,13.68,80.4-.33,76.72-29.24,49.82-164.92-14.89-195.55Z" style="fill: #d9b78b; stroke-width: 0px;"/>
  <path d="m638.29,248.79c-54.96,48.54-76.94,187.66,32.76,163.86,47.11-9.14,87.85-48.99,98.89-94.58,2.56-7.44,2.63-16.07,4.2-23.89,8.83-83.17-88.33-104.02-135.86-45.39Z" style="fill: #d9b78b; stroke-width: 0px;"/>
  <path d="m489.29,361.08c-.15-.55-.5-.9-1.07-1.02.36.34.71.68,1.07,1.02Z" style="fill: #d9b78b; stroke-width: 0px;"/>
</svg>