<?xml version="1.0" encoding="utf-8"?>
<!-- Generator: Adobe Illustrator 28.4.1, SVG Export Plug-In . SVG Version: 6.00 Build 0)  -->
<svg version="1.1" id="Livello_1" xmlns="http://www.w3.org/2000/svg" xmlns:xlink="http://www.w3.org/1999/xlink" x="0px" y="0px"
	 viewBox="0 0 632.4 509.1" style="enable-background:new 0 0 632.4 509.1;" xml:space="preserve">
<style type="text/css">
	.st0{fill:#221F20;}
</style>
<g>
<clipPath id="pet_shape" clipPathUnits="objectBoundingBox">
	<path class="st0" d="M184.3,471.1l1.2-1.2c1.4-1.5,2.9-3,4.3-4.5c2.2-2.4,4.1-5,5.9-7.8c7.8-11.9,11.9-26.5,11-40.7
		c-0.6-9.8-3.5-20.2-6.3-30.1l-8.1-29l-11.6-42l-0.9-3.3c-0.3,1.2-0.7,2.5-1.1,3.7c-0.9,3.2-1.9,6.4-2.8,9.6
		c-4.1,14.3-8.2,28.6-12.3,42.9c-4.7,16.4-9.4,32.8-14.1,49.2c-0.9,3.2-1.8,6.3-2.7,9.5c-0.3,1.2-0.7,2.4-1.1,3.6
		c-0.6,1.9-1.2,3.7-2,5.4c-0.9,2-2,4-3.5,5.6c-8.9,10.1-25,7.7-37.7,12.2c-7.8,2.7-14.4,8.4-18.5,15.5c-2,3.3-3.4,7-4.1,10.8
		c-1.8,10,1.1,20.7,7.5,28.6h35.4h42.7h3.7c-1.3-6.8-0.5-14.2,2.3-20.4C174.7,481.4,179.7,475.9,184.3,471.1z"/>
	<path class="st0" d="M565.5,367.5c-0.9-3.3-2.1-6.6-3.5-9.8c-2.4-5.9-5.6-11.5-9.4-16.7c-7.9-10.9-18.3-19.7-30.4-25.1
		c-5.5-2.5-11.4-4.2-17.5-5c-13.4-1.8-27.9,0.9-38.5,9.5c-10.5,8.6-16.3,23.4-12.3,36.4c10.7-13.2,27.8-22.4,45.1-19.6
		c3.9,0.6,7.4,1.7,10.6,3c10.9,4.5,17.7,12.9,21.1,23.1c0.4,1.3,0.8,2.5,1.2,3.9c2,7.8,2.2,16.5,1.1,25.3
		c-2.5,20-12.2,40.5-24.8,52.5c-1.3,1.2-2.5,2.3-3.8,3.3c-12.3,9.4-28.5,14-44.3,13.3c-4.8-0.1-9.5-0.7-14-1.8
		c-2.5-0.6-5-1.3-7.4-2.2c-0.3-0.1-0.7-0.3-0.9-0.4c-8-3.2-14.9-8.3-21-14.7c-5.4-5.8-10.2-12.6-14.5-20c-2.3-4-4.5-8.2-6.6-12.5
		c-2.3-4.7-4.4-9.6-6.5-14.5c-9-21.4-16.3-43.7-25.3-59.1c-10.7-18.4-24.4-34.8-38.1-51c-14.7-17.6-29.6-35.3-45.6-51.7
		c-16.8-17.3-34.8-33.1-55.1-45.9c-1.8-1.2-3.6-2.3-5.5-3.4c-14.1-8.3-29.4-15.3-40.3-27.5c-7.9-9-12.9-20.2-19.6-30.1
		c-6.7-9.9-16.3-19.1-28.1-20.5c2.8,18.3-3,37.8-15.2,51.8c-17.9,20.3-37.5,36.9-37.2,67c0.3,27.7,41,28.4,58.7,17.9
		c8.2-4.9,16-12.5,26.6-6.8c5.5,2.9,9.2,8.2,10.9,14.2c0.3,1,0.5,2,0.9,3c5.5,19.8,11,39.7,16.5,59.5c3.9,14,7.8,28,11.7,42.1
		c2.7,9.6,5.3,19.3,8,28.9c3,10.7,5.9,21.5,6.6,32.7c1.1,17.3-3.8,34.9-13.5,49.3c-2,2.9-4.1,5.7-6.5,8.3c-1.6,1.8-3.2,3.4-4.9,5.1
		c-4.5,4.5-8.9,9.2-11.5,14.9c-2.1,4.7-2.4,10.5-0.7,15.3h149.6h56.7c4.3,0,6.7-4.9,4.2-8.3c-1.8-2.5-2.9-4.9-3.7-7.3
		c-0.6-1.6-1.1-3.4-1.5-5.1c-0.4-1.3-0.7-2.8-0.1-4c1-2,3.7-2.2,5.9-2.1c3.4,0.2,6.8,0.5,10.2,0.9c8,1,16.1,2.4,24,4c0,0,0,0,0.1,0
		c1,0.2,2,0.4,3,0.6c2.7,0.5,5.5,1.1,8.2,1.6c7.6,1.5,15.2,2.9,22.9,3.9c37.5,4.8,69.8-11.5,89-38.3c16.5-23,23.4-53.7,15.5-85.4
		C566,369,565.8,368.2,565.5,367.5z"/>
	<path class="st0" d="M622.8,118.2c-0.1-0.4-0.3-0.8-0.4-1.3c-0.3-1-0.7-1.9-1.1-2.9c-0.7-1.9-1.4-3.8-2.2-5.6
		c-3-7.2-6.5-14.2-10.5-21c-7.6-13-16.8-25.1-27.7-35.9c-25.8-25.9-58.4-42.6-93.7-48.8c-6.3-1.1-12.6-1.8-19.1-2.3
		c-3.8-0.2-7.6-0.4-11.4-0.4c-12.2,0-24.4,1.3-36.2,3.8c-18.3,3.8-35.9,10.5-52,19.9c-20.3,11.9-38.1,27.8-52.3,46.6
		c-9.4-12.5-20.4-23.6-32.7-33.2c-6.2-4.9-12.8-9.4-19.6-13.3C243.2,11.6,220.2,4,196.3,1.2C189.5,0.4,182.6,0,175.7,0
		c-47,0-91,18.2-124.2,51.4c0,0,0,0,0,0C18.3,84.6,0,128.7,0,175.6c0,26.3,4.6,52.8,13.6,79.4c1.9,5.7,4.1,11.3,6.4,17
		c7.9,19.1,18,38.3,30.5,57.4c10.1,15.5,21.6,31,34.6,46.4c7.9,9.4,16.3,18.7,25.2,28.1c0.2,0.2,0.4,0.4,0.6,0.7
		c5.5,5.8,11.2,11.5,16.9,17l3.1-10.9l2.4-8.3c-3.1-3.1-6.1-6.1-9.1-9.3c-0.4-0.4-0.9-0.9-1.3-1.3c-44.5-46.5-75.1-92.9-91.4-138.7
		c-1.3-3.7-2.6-7.4-3.7-11.1c-6.9-22.3-10.3-44.5-10.3-66.4c0-34.3,10.9-66.9,30.9-93.9c3.5-4.7,7.3-9.2,11.3-13.5
		c1.3-1.4,2.7-2.9,4.1-4.3C93.8,34,133.5,17.6,175.7,17.6c12.4,0,24.6,1.5,36.6,4.3c15,3.6,29.5,9.3,42.8,17.1
		c8.4,4.9,16.3,10.5,23.6,16.9c6.3,5.5,12.2,11.4,17.6,17.8c4.5,5.3,8.7,10.9,12.5,16.8l7.4,11.5l7.4-11.5c2.4-3.8,5-7.4,7.7-11
		c12.5-16.3,28.2-30.2,45.9-40.5c24-14,51.5-21.3,79.4-21.3c2.1,0,4.3,0.1,6.4,0.2c2.2,0.1,4.4,0.2,6.6,0.4c1.8,0.1,3.6,0.3,5.3,0.5
		c32.5,3.7,62.8,17.3,87.3,39.3c2.1,1.9,4.2,3.9,6.2,5.9c13.3,13.3,23.9,28.5,31.6,45.1c4.7,10.1,8.3,20.7,10.8,31.6
		c0.9,4.1,1.7,8.3,2.3,12.6c1,7.4,1.6,14.9,1.6,22.5c0,9.7-0.7,19.4-2,29.2c-5.4,39.3-21.5,79.2-48.3,119.4c4,4.7,7.6,9.9,10.7,15.4
		c29.9-43.2,48.1-86.3,54.6-129c1.8-11.7,2.7-23.4,2.7-35C632.4,155.8,629.1,136.4,622.8,118.2z"/>
	<path class="st0" d="M543.3,210.2c7-0.1,14.2-0.9,20.2-4.4c6.8-3.9,10.9-10.2,13.2-17.5c3.3-10.2,3.2-22.4,2.4-33.2
		c-14.8-8.2-29.3-16.9-43.5-26.1c-6.4-4.1-12.8-8.6-17.2-14.7c-0.8-1-1.5-2.1-2.1-3.2c-3.6-6.5-4.4-14.2-6.4-21.4
		c-4.6-16.7-16.3-31.5-31.8-39c-0.9-0.4-1.7-0.8-2.6-1.2c-9.4-3.9-20-5.1-30.1-3.5c-6,1-11.9,3-17.2,6.1
		c-6.2,3.6-11.5,8.5-16.9,13.4c-2.4,2.2-4.8,4.4-7.3,6.5c-17.1,14.3-38,23.1-57.3,34.3c-21.2,12.3-40.3,27.5-58.2,44.2
		c-0.5,0.5-1.1,1-1.6,1.5c-12.8,12-25,24.6-36.9,37.5c12.4,9.4,24,19.9,34.9,30.8c18.4,18.4,35,38.2,50.5,56.7
		c13.8,16.4,28,33.4,39.2,52.7c2.1,3.7,4.1,7.4,6.1,11.1c0.9-3.9,1.6-7.9,2.2-11.9c1.6-10.2,2.3-20.5,3-30.8
		c1-14.9,2.1-29.8,3.1-44.8c0.5-6.7,0.9-13.3,1.4-20c0.6-8.3,8.2-13.7,15.7-12.5c1.8,0.3,3.6,1,5.3,2.1c4.2,2.8,8.6,5.4,13.2,7.7
		c14.4,7.3,31.2,11.8,46.6,7c12.2-3.8,21-15.3,23.3-27.4c-3.3-13-7.6-32-8.8-47.7c-0.1-1.3-0.2-2-0.2-2c0,0.6,0.1,1.3,0.2,2
		c0.6,6.3,3.4,26.3,15,40.6C514.4,208,528.9,210.4,543.3,210.2z"/>
		</clipPath>
</g>
</svg>
